<mxfile host="app.diagrams.net" agent="Mozilla/5.0 (Macintosh; Intel Mac OS X 10_15_7) AppleWebKit/537.36 (KHTML, like Gecko) Chrome/129.0.0.0 Safari/537.36" version="24.7.17">
  <diagram name="Page-1" id="Ormo84W_c2IyfqfIDuit">
    <mxGraphModel dx="1521" dy="1871" grid="1" gridSize="10" guides="1" tooltips="1" connect="1" arrows="1" fold="1" page="1" pageScale="1" pageWidth="827" pageHeight="1169" math="0" shadow="0">
      <root>
        <mxCell id="0" />
        <mxCell id="1" parent="0" />
        <mxCell id="oH70vvtLdWhHZ5SHcvYB-1" value="Application" style="swimlane;fontStyle=0;childLayout=stackLayout;horizontal=1;startSize=26;fillColor=none;horizontalStack=0;resizeParent=1;resizeParentMax=0;resizeLast=0;collapsible=1;marginBottom=0;whiteSpace=wrap;html=1;" vertex="1" parent="1">
          <mxGeometry x="130" y="-312" width="140" height="234" as="geometry" />
        </mxCell>
        <mxCell id="oH70vvtLdWhHZ5SHcvYB-2" value="id" style="text;strokeColor=none;fillColor=none;align=left;verticalAlign=top;spacingLeft=4;spacingRight=4;overflow=hidden;rotatable=0;points=[[0,0.5],[1,0.5]];portConstraint=eastwest;whiteSpace=wrap;html=1;" vertex="1" parent="oH70vvtLdWhHZ5SHcvYB-1">
          <mxGeometry y="26" width="140" height="26" as="geometry" />
        </mxCell>
        <mxCell id="oH70vvtLdWhHZ5SHcvYB-3" value="user" style="text;strokeColor=none;fillColor=none;align=left;verticalAlign=top;spacingLeft=4;spacingRight=4;overflow=hidden;rotatable=0;points=[[0,0.5],[1,0.5]];portConstraint=eastwest;whiteSpace=wrap;html=1;" vertex="1" parent="oH70vvtLdWhHZ5SHcvYB-1">
          <mxGeometry y="52" width="140" height="26" as="geometry" />
        </mxCell>
        <mxCell id="oH70vvtLdWhHZ5SHcvYB-4" value="topic" style="text;strokeColor=none;fillColor=none;align=left;verticalAlign=top;spacingLeft=4;spacingRight=4;overflow=hidden;rotatable=0;points=[[0,0.5],[1,0.5]];portConstraint=eastwest;whiteSpace=wrap;html=1;" vertex="1" parent="oH70vvtLdWhHZ5SHcvYB-1">
          <mxGeometry y="78" width="140" height="26" as="geometry" />
        </mxCell>
        <mxCell id="oH70vvtLdWhHZ5SHcvYB-37" value="thesisTitle" style="text;strokeColor=none;fillColor=none;align=left;verticalAlign=top;spacingLeft=4;spacingRight=4;overflow=hidden;rotatable=0;points=[[0,0.5],[1,0.5]];portConstraint=eastwest;whiteSpace=wrap;html=1;" vertex="1" parent="oH70vvtLdWhHZ5SHcvYB-1">
          <mxGeometry y="104" width="140" height="26" as="geometry" />
        </mxCell>
        <mxCell id="oH70vvtLdWhHZ5SHcvYB-39" value="thesisType" style="text;strokeColor=none;fillColor=none;align=left;verticalAlign=top;spacingLeft=4;spacingRight=4;overflow=hidden;rotatable=0;points=[[0,0.5],[1,0.5]];portConstraint=eastwest;whiteSpace=wrap;html=1;" vertex="1" parent="oH70vvtLdWhHZ5SHcvYB-1">
          <mxGeometry y="130" width="140" height="26" as="geometry" />
        </mxCell>
        <mxCell id="oH70vvtLdWhHZ5SHcvYB-38" value="state" style="text;strokeColor=none;fillColor=none;align=left;verticalAlign=top;spacingLeft=4;spacingRight=4;overflow=hidden;rotatable=0;points=[[0,0.5],[1,0.5]];portConstraint=eastwest;whiteSpace=wrap;html=1;" vertex="1" parent="oH70vvtLdWhHZ5SHcvYB-1">
          <mxGeometry y="156" width="140" height="26" as="geometry" />
        </mxCell>
        <mxCell id="oH70vvtLdWhHZ5SHcvYB-40" value="desiredStartDate" style="text;strokeColor=none;fillColor=none;align=left;verticalAlign=top;spacingLeft=4;spacingRight=4;overflow=hidden;rotatable=0;points=[[0,0.5],[1,0.5]];portConstraint=eastwest;whiteSpace=wrap;html=1;" vertex="1" parent="oH70vvtLdWhHZ5SHcvYB-1">
          <mxGeometry y="182" width="140" height="26" as="geometry" />
        </mxCell>
        <mxCell id="oH70vvtLdWhHZ5SHcvYB-44" value="motivation" style="text;strokeColor=none;fillColor=none;align=left;verticalAlign=top;spacingLeft=4;spacingRight=4;overflow=hidden;rotatable=0;points=[[0,0.5],[1,0.5]];portConstraint=eastwest;whiteSpace=wrap;html=1;" vertex="1" parent="oH70vvtLdWhHZ5SHcvYB-1">
          <mxGeometry y="208" width="140" height="26" as="geometry" />
        </mxCell>
        <mxCell id="oH70vvtLdWhHZ5SHcvYB-5" value="Thesis" style="swimlane;fontStyle=0;childLayout=stackLayout;horizontal=1;startSize=26;fillColor=none;horizontalStack=0;resizeParent=1;resizeParentMax=0;resizeLast=0;collapsible=1;marginBottom=0;whiteSpace=wrap;html=1;" vertex="1" parent="1">
          <mxGeometry x="360" y="-170" width="140" height="416" as="geometry" />
        </mxCell>
        <mxCell id="oH70vvtLdWhHZ5SHcvYB-6" value="id" style="text;strokeColor=none;fillColor=none;align=left;verticalAlign=top;spacingLeft=4;spacingRight=4;overflow=hidden;rotatable=0;points=[[0,0.5],[1,0.5]];portConstraint=eastwest;whiteSpace=wrap;html=1;" vertex="1" parent="oH70vvtLdWhHZ5SHcvYB-5">
          <mxGeometry y="26" width="140" height="26" as="geometry" />
        </mxCell>
        <mxCell id="oH70vvtLdWhHZ5SHcvYB-7" value="title" style="text;strokeColor=none;fillColor=none;align=left;verticalAlign=top;spacingLeft=4;spacingRight=4;overflow=hidden;rotatable=0;points=[[0,0.5],[1,0.5]];portConstraint=eastwest;whiteSpace=wrap;html=1;" vertex="1" parent="oH70vvtLdWhHZ5SHcvYB-5">
          <mxGeometry y="52" width="140" height="26" as="geometry" />
        </mxCell>
        <mxCell id="oH70vvtLdWhHZ5SHcvYB-8" value="type" style="text;strokeColor=none;fillColor=none;align=left;verticalAlign=top;spacingLeft=4;spacingRight=4;overflow=hidden;rotatable=0;points=[[0,0.5],[1,0.5]];portConstraint=eastwest;whiteSpace=wrap;html=1;" vertex="1" parent="oH70vvtLdWhHZ5SHcvYB-5">
          <mxGeometry y="78" width="140" height="26" as="geometry" />
        </mxCell>
        <mxCell id="oH70vvtLdWhHZ5SHcvYB-41" value="state" style="text;strokeColor=none;fillColor=none;align=left;verticalAlign=top;spacingLeft=4;spacingRight=4;overflow=hidden;rotatable=0;points=[[0,0.5],[1,0.5]];portConstraint=eastwest;whiteSpace=wrap;html=1;" vertex="1" parent="oH70vvtLdWhHZ5SHcvYB-5">
          <mxGeometry y="104" width="140" height="26" as="geometry" />
        </mxCell>
        <mxCell id="oH70vvtLdWhHZ5SHcvYB-42" value="abstract" style="text;strokeColor=none;fillColor=none;align=left;verticalAlign=top;spacingLeft=4;spacingRight=4;overflow=hidden;rotatable=0;points=[[0,0.5],[1,0.5]];portConstraint=eastwest;whiteSpace=wrap;html=1;" vertex="1" parent="oH70vvtLdWhHZ5SHcvYB-5">
          <mxGeometry y="130" width="140" height="26" as="geometry" />
        </mxCell>
        <mxCell id="oH70vvtLdWhHZ5SHcvYB-43" value="application" style="text;strokeColor=none;fillColor=none;align=left;verticalAlign=top;spacingLeft=4;spacingRight=4;overflow=hidden;rotatable=0;points=[[0,0.5],[1,0.5]];portConstraint=eastwest;whiteSpace=wrap;html=1;" vertex="1" parent="oH70vvtLdWhHZ5SHcvYB-5">
          <mxGeometry y="156" width="140" height="26" as="geometry" />
        </mxCell>
        <mxCell id="oH70vvtLdWhHZ5SHcvYB-45" value="finalGrade" style="text;strokeColor=none;fillColor=none;align=left;verticalAlign=top;spacingLeft=4;spacingRight=4;overflow=hidden;rotatable=0;points=[[0,0.5],[1,0.5]];portConstraint=eastwest;whiteSpace=wrap;html=1;" vertex="1" parent="oH70vvtLdWhHZ5SHcvYB-5">
          <mxGeometry y="182" width="140" height="26" as="geometry" />
        </mxCell>
        <mxCell id="oH70vvtLdWhHZ5SHcvYB-46" value="startDate" style="text;strokeColor=none;fillColor=none;align=left;verticalAlign=top;spacingLeft=4;spacingRight=4;overflow=hidden;rotatable=0;points=[[0,0.5],[1,0.5]];portConstraint=eastwest;whiteSpace=wrap;html=1;" vertex="1" parent="oH70vvtLdWhHZ5SHcvYB-5">
          <mxGeometry y="208" width="140" height="26" as="geometry" />
        </mxCell>
        <mxCell id="oH70vvtLdWhHZ5SHcvYB-47" value="endDate" style="text;strokeColor=none;fillColor=none;align=left;verticalAlign=top;spacingLeft=4;spacingRight=4;overflow=hidden;rotatable=0;points=[[0,0.5],[1,0.5]];portConstraint=eastwest;whiteSpace=wrap;html=1;" vertex="1" parent="oH70vvtLdWhHZ5SHcvYB-5">
          <mxGeometry y="234" width="140" height="26" as="geometry" />
        </mxCell>
        <mxCell id="oH70vvtLdWhHZ5SHcvYB-48" value="roles" style="text;strokeColor=none;fillColor=none;align=left;verticalAlign=top;spacingLeft=4;spacingRight=4;overflow=hidden;rotatable=0;points=[[0,0.5],[1,0.5]];portConstraint=eastwest;whiteSpace=wrap;html=1;" vertex="1" parent="oH70vvtLdWhHZ5SHcvYB-5">
          <mxGeometry y="260" width="140" height="26" as="geometry" />
        </mxCell>
        <mxCell id="oH70vvtLdWhHZ5SHcvYB-68" value="comments" style="text;strokeColor=none;fillColor=none;align=left;verticalAlign=top;spacingLeft=4;spacingRight=4;overflow=hidden;rotatable=0;points=[[0,0.5],[1,0.5]];portConstraint=eastwest;whiteSpace=wrap;html=1;" vertex="1" parent="oH70vvtLdWhHZ5SHcvYB-5">
          <mxGeometry y="286" width="140" height="26" as="geometry" />
        </mxCell>
        <mxCell id="oH70vvtLdWhHZ5SHcvYB-49" value="proposals" style="text;strokeColor=none;fillColor=none;align=left;verticalAlign=top;spacingLeft=4;spacingRight=4;overflow=hidden;rotatable=0;points=[[0,0.5],[1,0.5]];portConstraint=eastwest;whiteSpace=wrap;html=1;" vertex="1" parent="oH70vvtLdWhHZ5SHcvYB-5">
          <mxGeometry y="312" width="140" height="26" as="geometry" />
        </mxCell>
        <mxCell id="oH70vvtLdWhHZ5SHcvYB-50" value="assessments" style="text;strokeColor=none;fillColor=none;align=left;verticalAlign=top;spacingLeft=4;spacingRight=4;overflow=hidden;rotatable=0;points=[[0,0.5],[1,0.5]];portConstraint=eastwest;whiteSpace=wrap;html=1;" vertex="1" parent="oH70vvtLdWhHZ5SHcvYB-5">
          <mxGeometry y="338" width="140" height="26" as="geometry" />
        </mxCell>
        <mxCell id="oH70vvtLdWhHZ5SHcvYB-51" value="presentations" style="text;strokeColor=none;fillColor=none;align=left;verticalAlign=top;spacingLeft=4;spacingRight=4;overflow=hidden;rotatable=0;points=[[0,0.5],[1,0.5]];portConstraint=eastwest;whiteSpace=wrap;html=1;" vertex="1" parent="oH70vvtLdWhHZ5SHcvYB-5">
          <mxGeometry y="364" width="140" height="26" as="geometry" />
        </mxCell>
        <mxCell id="oH70vvtLdWhHZ5SHcvYB-52" value="feedback" style="text;strokeColor=none;fillColor=none;align=left;verticalAlign=top;spacingLeft=4;spacingRight=4;overflow=hidden;rotatable=0;points=[[0,0.5],[1,0.5]];portConstraint=eastwest;whiteSpace=wrap;html=1;" vertex="1" parent="oH70vvtLdWhHZ5SHcvYB-5">
          <mxGeometry y="390" width="140" height="26" as="geometry" />
        </mxCell>
        <mxCell id="oH70vvtLdWhHZ5SHcvYB-9" value="ThesisAssessment" style="swimlane;fontStyle=0;childLayout=stackLayout;horizontal=1;startSize=26;fillColor=none;horizontalStack=0;resizeParent=1;resizeParentMax=0;resizeLast=0;collapsible=1;marginBottom=0;whiteSpace=wrap;html=1;" vertex="1" parent="1">
          <mxGeometry x="590" y="-130" width="140" height="156" as="geometry" />
        </mxCell>
        <mxCell id="oH70vvtLdWhHZ5SHcvYB-10" value="id" style="text;strokeColor=none;fillColor=none;align=left;verticalAlign=top;spacingLeft=4;spacingRight=4;overflow=hidden;rotatable=0;points=[[0,0.5],[1,0.5]];portConstraint=eastwest;whiteSpace=wrap;html=1;" vertex="1" parent="oH70vvtLdWhHZ5SHcvYB-9">
          <mxGeometry y="26" width="140" height="26" as="geometry" />
        </mxCell>
        <mxCell id="oH70vvtLdWhHZ5SHcvYB-11" value="summary" style="text;strokeColor=none;fillColor=none;align=left;verticalAlign=top;spacingLeft=4;spacingRight=4;overflow=hidden;rotatable=0;points=[[0,0.5],[1,0.5]];portConstraint=eastwest;whiteSpace=wrap;html=1;" vertex="1" parent="oH70vvtLdWhHZ5SHcvYB-9">
          <mxGeometry y="52" width="140" height="26" as="geometry" />
        </mxCell>
        <mxCell id="oH70vvtLdWhHZ5SHcvYB-12" value="positives" style="text;strokeColor=none;fillColor=none;align=left;verticalAlign=top;spacingLeft=4;spacingRight=4;overflow=hidden;rotatable=0;points=[[0,0.5],[1,0.5]];portConstraint=eastwest;whiteSpace=wrap;html=1;" vertex="1" parent="oH70vvtLdWhHZ5SHcvYB-9">
          <mxGeometry y="78" width="140" height="26" as="geometry" />
        </mxCell>
        <mxCell id="oH70vvtLdWhHZ5SHcvYB-56" value="negatives" style="text;strokeColor=none;fillColor=none;align=left;verticalAlign=top;spacingLeft=4;spacingRight=4;overflow=hidden;rotatable=0;points=[[0,0.5],[1,0.5]];portConstraint=eastwest;whiteSpace=wrap;html=1;" vertex="1" parent="oH70vvtLdWhHZ5SHcvYB-9">
          <mxGeometry y="104" width="140" height="26" as="geometry" />
        </mxCell>
        <mxCell id="oH70vvtLdWhHZ5SHcvYB-57" value="gradeSuggestion" style="text;strokeColor=none;fillColor=none;align=left;verticalAlign=top;spacingLeft=4;spacingRight=4;overflow=hidden;rotatable=0;points=[[0,0.5],[1,0.5]];portConstraint=eastwest;whiteSpace=wrap;html=1;" vertex="1" parent="oH70vvtLdWhHZ5SHcvYB-9">
          <mxGeometry y="130" width="140" height="26" as="geometry" />
        </mxCell>
        <mxCell id="oH70vvtLdWhHZ5SHcvYB-13" value="ThesisComment" style="swimlane;fontStyle=0;childLayout=stackLayout;horizontal=1;startSize=26;fillColor=none;horizontalStack=0;resizeParent=1;resizeParentMax=0;resizeLast=0;collapsible=1;marginBottom=0;whiteSpace=wrap;html=1;" vertex="1" parent="1">
          <mxGeometry x="590" y="-480" width="140" height="130" as="geometry" />
        </mxCell>
        <mxCell id="oH70vvtLdWhHZ5SHcvYB-14" value="id" style="text;strokeColor=none;fillColor=none;align=left;verticalAlign=top;spacingLeft=4;spacingRight=4;overflow=hidden;rotatable=0;points=[[0,0.5],[1,0.5]];portConstraint=eastwest;whiteSpace=wrap;html=1;" vertex="1" parent="oH70vvtLdWhHZ5SHcvYB-13">
          <mxGeometry y="26" width="140" height="26" as="geometry" />
        </mxCell>
        <mxCell id="oH70vvtLdWhHZ5SHcvYB-15" value="type" style="text;strokeColor=none;fillColor=none;align=left;verticalAlign=top;spacingLeft=4;spacingRight=4;overflow=hidden;rotatable=0;points=[[0,0.5],[1,0.5]];portConstraint=eastwest;whiteSpace=wrap;html=1;" vertex="1" parent="oH70vvtLdWhHZ5SHcvYB-13">
          <mxGeometry y="52" width="140" height="26" as="geometry" />
        </mxCell>
        <mxCell id="oH70vvtLdWhHZ5SHcvYB-16" value="message" style="text;strokeColor=none;fillColor=none;align=left;verticalAlign=top;spacingLeft=4;spacingRight=4;overflow=hidden;rotatable=0;points=[[0,0.5],[1,0.5]];portConstraint=eastwest;whiteSpace=wrap;html=1;" vertex="1" parent="oH70vvtLdWhHZ5SHcvYB-13">
          <mxGeometry y="78" width="140" height="26" as="geometry" />
        </mxCell>
        <mxCell id="oH70vvtLdWhHZ5SHcvYB-55" value="user" style="text;strokeColor=none;fillColor=none;align=left;verticalAlign=top;spacingLeft=4;spacingRight=4;overflow=hidden;rotatable=0;points=[[0,0.5],[1,0.5]];portConstraint=eastwest;whiteSpace=wrap;html=1;" vertex="1" parent="oH70vvtLdWhHZ5SHcvYB-13">
          <mxGeometry y="104" width="140" height="26" as="geometry" />
        </mxCell>
        <mxCell id="oH70vvtLdWhHZ5SHcvYB-17" value="ThesisFeedback" style="swimlane;fontStyle=0;childLayout=stackLayout;horizontal=1;startSize=26;fillColor=none;horizontalStack=0;resizeParent=1;resizeParentMax=0;resizeLast=0;collapsible=1;marginBottom=0;whiteSpace=wrap;html=1;" vertex="1" parent="1">
          <mxGeometry x="130" y="108" width="140" height="130" as="geometry" />
        </mxCell>
        <mxCell id="oH70vvtLdWhHZ5SHcvYB-18" value="id" style="text;strokeColor=none;fillColor=none;align=left;verticalAlign=top;spacingLeft=4;spacingRight=4;overflow=hidden;rotatable=0;points=[[0,0.5],[1,0.5]];portConstraint=eastwest;whiteSpace=wrap;html=1;" vertex="1" parent="oH70vvtLdWhHZ5SHcvYB-17">
          <mxGeometry y="26" width="140" height="26" as="geometry" />
        </mxCell>
        <mxCell id="oH70vvtLdWhHZ5SHcvYB-19" value="type" style="text;strokeColor=none;fillColor=none;align=left;verticalAlign=top;spacingLeft=4;spacingRight=4;overflow=hidden;rotatable=0;points=[[0,0.5],[1,0.5]];portConstraint=eastwest;whiteSpace=wrap;html=1;" vertex="1" parent="oH70vvtLdWhHZ5SHcvYB-17">
          <mxGeometry y="52" width="140" height="26" as="geometry" />
        </mxCell>
        <mxCell id="oH70vvtLdWhHZ5SHcvYB-20" value="feedback" style="text;strokeColor=none;fillColor=none;align=left;verticalAlign=top;spacingLeft=4;spacingRight=4;overflow=hidden;rotatable=0;points=[[0,0.5],[1,0.5]];portConstraint=eastwest;whiteSpace=wrap;html=1;" vertex="1" parent="oH70vvtLdWhHZ5SHcvYB-17">
          <mxGeometry y="78" width="140" height="26" as="geometry" />
        </mxCell>
        <mxCell id="oH70vvtLdWhHZ5SHcvYB-54" value="completed" style="text;strokeColor=none;fillColor=none;align=left;verticalAlign=top;spacingLeft=4;spacingRight=4;overflow=hidden;rotatable=0;points=[[0,0.5],[1,0.5]];portConstraint=eastwest;whiteSpace=wrap;html=1;" vertex="1" parent="oH70vvtLdWhHZ5SHcvYB-17">
          <mxGeometry y="104" width="140" height="26" as="geometry" />
        </mxCell>
        <mxCell id="oH70vvtLdWhHZ5SHcvYB-21" value="User" style="swimlane;fontStyle=0;childLayout=stackLayout;horizontal=1;startSize=26;fillColor=none;horizontalStack=0;resizeParent=1;resizeParentMax=0;resizeLast=0;collapsible=1;marginBottom=0;whiteSpace=wrap;html=1;" vertex="1" parent="1">
          <mxGeometry x="360" y="-520" width="140" height="234" as="geometry" />
        </mxCell>
        <mxCell id="oH70vvtLdWhHZ5SHcvYB-22" value="id" style="text;strokeColor=none;fillColor=none;align=left;verticalAlign=top;spacingLeft=4;spacingRight=4;overflow=hidden;rotatable=0;points=[[0,0.5],[1,0.5]];portConstraint=eastwest;whiteSpace=wrap;html=1;" vertex="1" parent="oH70vvtLdWhHZ5SHcvYB-21">
          <mxGeometry y="26" width="140" height="26" as="geometry" />
        </mxCell>
        <mxCell id="oH70vvtLdWhHZ5SHcvYB-23" value="universityId" style="text;strokeColor=none;fillColor=none;align=left;verticalAlign=top;spacingLeft=4;spacingRight=4;overflow=hidden;rotatable=0;points=[[0,0.5],[1,0.5]];portConstraint=eastwest;whiteSpace=wrap;html=1;" vertex="1" parent="oH70vvtLdWhHZ5SHcvYB-21">
          <mxGeometry y="52" width="140" height="26" as="geometry" />
        </mxCell>
        <mxCell id="oH70vvtLdWhHZ5SHcvYB-66" value="email" style="text;strokeColor=none;fillColor=none;align=left;verticalAlign=top;spacingLeft=4;spacingRight=4;overflow=hidden;rotatable=0;points=[[0,0.5],[1,0.5]];portConstraint=eastwest;whiteSpace=wrap;html=1;" vertex="1" parent="oH70vvtLdWhHZ5SHcvYB-21">
          <mxGeometry y="78" width="140" height="26" as="geometry" />
        </mxCell>
        <mxCell id="oH70vvtLdWhHZ5SHcvYB-64" value="firstName" style="text;strokeColor=none;fillColor=none;align=left;verticalAlign=top;spacingLeft=4;spacingRight=4;overflow=hidden;rotatable=0;points=[[0,0.5],[1,0.5]];portConstraint=eastwest;whiteSpace=wrap;html=1;" vertex="1" parent="oH70vvtLdWhHZ5SHcvYB-21">
          <mxGeometry y="104" width="140" height="26" as="geometry" />
        </mxCell>
        <mxCell id="oH70vvtLdWhHZ5SHcvYB-65" value="lastName" style="text;strokeColor=none;fillColor=none;align=left;verticalAlign=top;spacingLeft=4;spacingRight=4;overflow=hidden;rotatable=0;points=[[0,0.5],[1,0.5]];portConstraint=eastwest;whiteSpace=wrap;html=1;" vertex="1" parent="oH70vvtLdWhHZ5SHcvYB-21">
          <mxGeometry y="130" width="140" height="26" as="geometry" />
        </mxCell>
        <mxCell id="oH70vvtLdWhHZ5SHcvYB-67" value="projects" style="text;strokeColor=none;fillColor=none;align=left;verticalAlign=top;spacingLeft=4;spacingRight=4;overflow=hidden;rotatable=0;points=[[0,0.5],[1,0.5]];portConstraint=eastwest;whiteSpace=wrap;html=1;" vertex="1" parent="oH70vvtLdWhHZ5SHcvYB-21">
          <mxGeometry y="156" width="140" height="26" as="geometry" />
        </mxCell>
        <mxCell id="oH70vvtLdWhHZ5SHcvYB-63" value="interests" style="text;strokeColor=none;fillColor=none;align=left;verticalAlign=top;spacingLeft=4;spacingRight=4;overflow=hidden;rotatable=0;points=[[0,0.5],[1,0.5]];portConstraint=eastwest;whiteSpace=wrap;html=1;" vertex="1" parent="oH70vvtLdWhHZ5SHcvYB-21">
          <mxGeometry y="182" width="140" height="26" as="geometry" />
        </mxCell>
        <mxCell id="oH70vvtLdWhHZ5SHcvYB-62" value="groups" style="text;strokeColor=none;fillColor=none;align=left;verticalAlign=top;spacingLeft=4;spacingRight=4;overflow=hidden;rotatable=0;points=[[0,0.5],[1,0.5]];portConstraint=eastwest;whiteSpace=wrap;html=1;" vertex="1" parent="oH70vvtLdWhHZ5SHcvYB-21">
          <mxGeometry y="208" width="140" height="26" as="geometry" />
        </mxCell>
        <mxCell id="oH70vvtLdWhHZ5SHcvYB-25" value="ThesisPresentation" style="swimlane;fontStyle=0;childLayout=stackLayout;horizontal=1;startSize=26;fillColor=none;horizontalStack=0;resizeParent=1;resizeParentMax=0;resizeLast=0;collapsible=1;marginBottom=0;whiteSpace=wrap;html=1;" vertex="1" parent="1">
          <mxGeometry x="130" y="-62" width="140" height="156" as="geometry" />
        </mxCell>
        <mxCell id="oH70vvtLdWhHZ5SHcvYB-26" value="id" style="text;strokeColor=none;fillColor=none;align=left;verticalAlign=top;spacingLeft=4;spacingRight=4;overflow=hidden;rotatable=0;points=[[0,0.5],[1,0.5]];portConstraint=eastwest;whiteSpace=wrap;html=1;" vertex="1" parent="oH70vvtLdWhHZ5SHcvYB-25">
          <mxGeometry y="26" width="140" height="26" as="geometry" />
        </mxCell>
        <mxCell id="oH70vvtLdWhHZ5SHcvYB-27" value="type" style="text;strokeColor=none;fillColor=none;align=left;verticalAlign=top;spacingLeft=4;spacingRight=4;overflow=hidden;rotatable=0;points=[[0,0.5],[1,0.5]];portConstraint=eastwest;whiteSpace=wrap;html=1;" vertex="1" parent="oH70vvtLdWhHZ5SHcvYB-25">
          <mxGeometry y="52" width="140" height="26" as="geometry" />
        </mxCell>
        <mxCell id="oH70vvtLdWhHZ5SHcvYB-58" value="location" style="text;strokeColor=none;fillColor=none;align=left;verticalAlign=top;spacingLeft=4;spacingRight=4;overflow=hidden;rotatable=0;points=[[0,0.5],[1,0.5]];portConstraint=eastwest;whiteSpace=wrap;html=1;" vertex="1" parent="oH70vvtLdWhHZ5SHcvYB-25">
          <mxGeometry y="78" width="140" height="26" as="geometry" />
        </mxCell>
        <mxCell id="oH70vvtLdWhHZ5SHcvYB-59" value="streamUrl" style="text;strokeColor=none;fillColor=none;align=left;verticalAlign=top;spacingLeft=4;spacingRight=4;overflow=hidden;rotatable=0;points=[[0,0.5],[1,0.5]];portConstraint=eastwest;whiteSpace=wrap;html=1;" vertex="1" parent="oH70vvtLdWhHZ5SHcvYB-25">
          <mxGeometry y="104" width="140" height="26" as="geometry" />
        </mxCell>
        <mxCell id="oH70vvtLdWhHZ5SHcvYB-60" value="date" style="text;strokeColor=none;fillColor=none;align=left;verticalAlign=top;spacingLeft=4;spacingRight=4;overflow=hidden;rotatable=0;points=[[0,0.5],[1,0.5]];portConstraint=eastwest;whiteSpace=wrap;html=1;" vertex="1" parent="oH70vvtLdWhHZ5SHcvYB-25">
          <mxGeometry y="130" width="140" height="26" as="geometry" />
        </mxCell>
        <mxCell id="oH70vvtLdWhHZ5SHcvYB-29" value="ThesisProposal" style="swimlane;fontStyle=0;childLayout=stackLayout;horizontal=1;startSize=26;fillColor=none;horizontalStack=0;resizeParent=1;resizeParentMax=0;resizeLast=0;collapsible=1;marginBottom=0;whiteSpace=wrap;html=1;" vertex="1" parent="1">
          <mxGeometry x="590" y="-294" width="140" height="104" as="geometry" />
        </mxCell>
        <mxCell id="oH70vvtLdWhHZ5SHcvYB-30" value="id" style="text;strokeColor=none;fillColor=none;align=left;verticalAlign=top;spacingLeft=4;spacingRight=4;overflow=hidden;rotatable=0;points=[[0,0.5],[1,0.5]];portConstraint=eastwest;whiteSpace=wrap;html=1;" vertex="1" parent="oH70vvtLdWhHZ5SHcvYB-29">
          <mxGeometry y="26" width="140" height="26" as="geometry" />
        </mxCell>
        <mxCell id="oH70vvtLdWhHZ5SHcvYB-31" value="file" style="text;strokeColor=none;fillColor=none;align=left;verticalAlign=top;spacingLeft=4;spacingRight=4;overflow=hidden;rotatable=0;points=[[0,0.5],[1,0.5]];portConstraint=eastwest;whiteSpace=wrap;html=1;" vertex="1" parent="oH70vvtLdWhHZ5SHcvYB-29">
          <mxGeometry y="52" width="140" height="26" as="geometry" />
        </mxCell>
        <mxCell id="oH70vvtLdWhHZ5SHcvYB-32" value="approved" style="text;strokeColor=none;fillColor=none;align=left;verticalAlign=top;spacingLeft=4;spacingRight=4;overflow=hidden;rotatable=0;points=[[0,0.5],[1,0.5]];portConstraint=eastwest;whiteSpace=wrap;html=1;" vertex="1" parent="oH70vvtLdWhHZ5SHcvYB-29">
          <mxGeometry y="78" width="140" height="26" as="geometry" />
        </mxCell>
        <mxCell id="oH70vvtLdWhHZ5SHcvYB-33" value="Topic" style="swimlane;fontStyle=0;childLayout=stackLayout;horizontal=1;startSize=26;fillColor=none;horizontalStack=0;resizeParent=1;resizeParentMax=0;resizeLast=0;collapsible=1;marginBottom=0;whiteSpace=wrap;html=1;" vertex="1" parent="1">
          <mxGeometry x="130" y="-490" width="140" height="130" as="geometry" />
        </mxCell>
        <mxCell id="oH70vvtLdWhHZ5SHcvYB-34" value="id" style="text;strokeColor=none;fillColor=none;align=left;verticalAlign=top;spacingLeft=4;spacingRight=4;overflow=hidden;rotatable=0;points=[[0,0.5],[1,0.5]];portConstraint=eastwest;whiteSpace=wrap;html=1;" vertex="1" parent="oH70vvtLdWhHZ5SHcvYB-33">
          <mxGeometry y="26" width="140" height="26" as="geometry" />
        </mxCell>
        <mxCell id="oH70vvtLdWhHZ5SHcvYB-35" value="title" style="text;strokeColor=none;fillColor=none;align=left;verticalAlign=top;spacingLeft=4;spacingRight=4;overflow=hidden;rotatable=0;points=[[0,0.5],[1,0.5]];portConstraint=eastwest;whiteSpace=wrap;html=1;" vertex="1" parent="oH70vvtLdWhHZ5SHcvYB-33">
          <mxGeometry y="52" width="140" height="26" as="geometry" />
        </mxCell>
        <mxCell id="oH70vvtLdWhHZ5SHcvYB-36" value="description" style="text;strokeColor=none;fillColor=none;align=left;verticalAlign=top;spacingLeft=4;spacingRight=4;overflow=hidden;rotatable=0;points=[[0,0.5],[1,0.5]];portConstraint=eastwest;whiteSpace=wrap;html=1;" vertex="1" parent="oH70vvtLdWhHZ5SHcvYB-33">
          <mxGeometry y="78" width="140" height="26" as="geometry" />
        </mxCell>
        <mxCell id="oH70vvtLdWhHZ5SHcvYB-53" value="closed" style="text;strokeColor=none;fillColor=none;align=left;verticalAlign=top;spacingLeft=4;spacingRight=4;overflow=hidden;rotatable=0;points=[[0,0.5],[1,0.5]];portConstraint=eastwest;whiteSpace=wrap;html=1;" vertex="1" parent="oH70vvtLdWhHZ5SHcvYB-33">
          <mxGeometry y="104" width="140" height="26" as="geometry" />
        </mxCell>
        <mxCell id="oH70vvtLdWhHZ5SHcvYB-69" value="" style="endArrow=diamondThin;endFill=1;endSize=24;html=1;rounded=0;entryX=0;entryY=0.5;entryDx=0;entryDy=0;edgeStyle=orthogonalEdgeStyle;" edge="1" parent="1" source="oH70vvtLdWhHZ5SHcvYB-21" target="oH70vvtLdWhHZ5SHcvYB-55">
          <mxGeometry width="160" relative="1" as="geometry">
            <mxPoint x="550" y="-530" as="sourcePoint" />
            <mxPoint x="620" y="-240" as="targetPoint" />
            <Array as="points">
              <mxPoint x="520" y="-363" />
              <mxPoint x="520" y="-363" />
            </Array>
          </mxGeometry>
        </mxCell>
        <mxCell id="oH70vvtLdWhHZ5SHcvYB-70" value="" style="endArrow=diamondThin;endFill=1;endSize=24;html=1;rounded=0;entryX=1;entryY=0.5;entryDx=0;entryDy=0;edgeStyle=orthogonalEdgeStyle;" edge="1" parent="1" source="oH70vvtLdWhHZ5SHcvYB-21" target="oH70vvtLdWhHZ5SHcvYB-3">
          <mxGeometry width="160" relative="1" as="geometry">
            <mxPoint x="490" y="-230" as="sourcePoint" />
            <mxPoint x="330" y="-230" as="targetPoint" />
          </mxGeometry>
        </mxCell>
        <mxCell id="oH70vvtLdWhHZ5SHcvYB-71" value="" style="endArrow=diamondThin;endFill=0;endSize=24;html=1;rounded=0;entryX=0;entryY=0.5;entryDx=0;entryDy=0;edgeStyle=orthogonalEdgeStyle;" edge="1" parent="1" source="oH70vvtLdWhHZ5SHcvYB-33" target="oH70vvtLdWhHZ5SHcvYB-4">
          <mxGeometry width="160" relative="1" as="geometry">
            <mxPoint x="-60" y="-180" as="sourcePoint" />
            <mxPoint x="100" y="-180" as="targetPoint" />
            <Array as="points">
              <mxPoint x="200" y="-340" />
              <mxPoint x="90" y="-340" />
              <mxPoint x="90" y="-221" />
            </Array>
          </mxGeometry>
        </mxCell>
        <mxCell id="oH70vvtLdWhHZ5SHcvYB-72" value="" style="endArrow=diamondThin;endFill=0;endSize=24;html=1;rounded=0;entryX=1;entryY=0.5;entryDx=0;entryDy=0;edgeStyle=orthogonalEdgeStyle;" edge="1" parent="1" source="oH70vvtLdWhHZ5SHcvYB-13" target="oH70vvtLdWhHZ5SHcvYB-68">
          <mxGeometry width="160" relative="1" as="geometry">
            <mxPoint x="400" y="-220" as="sourcePoint" />
            <mxPoint x="560" y="-220" as="targetPoint" />
            <Array as="points">
              <mxPoint x="660" y="-320" />
              <mxPoint x="540" y="-320" />
              <mxPoint x="540" y="129" />
            </Array>
          </mxGeometry>
        </mxCell>
        <mxCell id="oH70vvtLdWhHZ5SHcvYB-73" value="" style="endArrow=diamondThin;endFill=0;endSize=24;html=1;rounded=0;entryX=1;entryY=0.5;entryDx=0;entryDy=0;edgeStyle=orthogonalEdgeStyle;" edge="1" parent="1" source="oH70vvtLdWhHZ5SHcvYB-29" target="oH70vvtLdWhHZ5SHcvYB-49">
          <mxGeometry width="160" relative="1" as="geometry">
            <mxPoint x="760" y="60" as="sourcePoint" />
            <mxPoint x="920" y="60" as="targetPoint" />
            <Array as="points">
              <mxPoint x="660" y="-160" />
              <mxPoint x="570" y="-160" />
              <mxPoint x="570" y="155" />
            </Array>
          </mxGeometry>
        </mxCell>
        <mxCell id="oH70vvtLdWhHZ5SHcvYB-74" value="" style="endArrow=diamondThin;endFill=0;endSize=24;html=1;rounded=0;entryX=1;entryY=0.5;entryDx=0;entryDy=0;edgeStyle=orthogonalEdgeStyle;" edge="1" parent="1" source="oH70vvtLdWhHZ5SHcvYB-9" target="oH70vvtLdWhHZ5SHcvYB-50">
          <mxGeometry width="160" relative="1" as="geometry">
            <mxPoint x="750" y="180" as="sourcePoint" />
            <mxPoint x="910" y="180" as="targetPoint" />
          </mxGeometry>
        </mxCell>
        <mxCell id="oH70vvtLdWhHZ5SHcvYB-75" value="" style="endArrow=diamondThin;endFill=0;endSize=24;html=1;rounded=0;entryX=0;entryY=0.5;entryDx=0;entryDy=0;edgeStyle=orthogonalEdgeStyle;" edge="1" parent="1" source="oH70vvtLdWhHZ5SHcvYB-25" target="oH70vvtLdWhHZ5SHcvYB-51">
          <mxGeometry width="160" relative="1" as="geometry">
            <mxPoint x="80" y="260" as="sourcePoint" />
            <mxPoint x="240" y="260" as="targetPoint" />
            <Array as="points">
              <mxPoint x="330" y="48" />
              <mxPoint x="330" y="207" />
            </Array>
          </mxGeometry>
        </mxCell>
        <mxCell id="oH70vvtLdWhHZ5SHcvYB-76" value="" style="endArrow=diamondThin;endFill=0;endSize=24;html=1;rounded=0;entryX=0;entryY=0.5;entryDx=0;entryDy=0;edgeStyle=orthogonalEdgeStyle;" edge="1" parent="1" source="oH70vvtLdWhHZ5SHcvYB-17" target="oH70vvtLdWhHZ5SHcvYB-52">
          <mxGeometry width="160" relative="1" as="geometry">
            <mxPoint x="130" y="240" as="sourcePoint" />
            <mxPoint x="290" y="240" as="targetPoint" />
          </mxGeometry>
        </mxCell>
      </root>
    </mxGraphModel>
  </diagram>
</mxfile>
